<svg width="29" height="28" viewBox="0 0 29 28" fill="none" xmlns="http://www.w3.org/2000/svg">
<path fill-rule="evenodd" clip-rule="evenodd" d="M14.5 0.666748C15.005 0.666748 15.4667 0.952085 15.6926 1.4038L19.3842 8.7871L27.3694 10.0156C27.8785 10.0939 28.297 10.4585 28.4443 10.952C28.5916 11.4456 28.4415 11.9799 28.0586 12.3245L21.9758 17.799L23.7992 25.7003C23.9188 26.2185 23.7189 26.7583 23.2906 27.0737C22.8624 27.3891 22.2876 27.4198 21.8282 27.1518L14.5 22.877L7.17183 27.1518C6.7124 27.4198 6.13764 27.3891 5.70935 27.0737C5.28107 26.7583 5.08121 26.2185 5.20081 25.7003L7.02418 17.799L0.941381 12.3245C0.558518 11.9799 0.408375 11.4456 0.555707 10.952C0.703039 10.4585 1.12149 10.0939 1.63059 10.0156L9.61578 8.7871L13.3074 1.4038C13.5333 0.952085 13.995 0.666748 14.5 0.666748ZM14.5 4.98151L11.6926 10.5964C11.4992 10.9832 11.1302 11.2522 10.7027 11.3179L4.81559 12.2236L9.39195 16.3424C9.75226 16.6666 9.90819 17.1609 9.79919 17.6332L8.49286 23.294L13.8282 20.1817C14.2433 19.9395 14.7567 19.9395 15.1718 20.1817L20.5071 23.294L19.2008 17.6332C19.0918 17.1609 19.2477 16.6666 19.608 16.3424L24.1844 12.2236L18.2973 11.3179C17.8698 11.2522 17.5008 10.9832 17.3074 10.5964L14.5 4.98151Z" fill="#FFCE31"/>
</svg>
